<mxfile host="65bd71144e">
    <diagram id="NWTkI4rJhC2Gda2uOcfn" name="Page-1">
        <mxGraphModel dx="560" dy="770" grid="1" gridSize="10" guides="1" tooltips="1" connect="1" arrows="1" fold="1" page="1" pageScale="1" pageWidth="850" pageHeight="1100" math="0" shadow="0">
            <root>
                <mxCell id="0"/>
                <mxCell id="1" parent="0"/>
                <mxCell id="2" value="Quiz" style="swimlane;fontStyle=0;childLayout=stackLayout;horizontal=1;startSize=26;fillColor=none;horizontalStack=0;resizeParent=1;resizeParentMax=0;resizeLast=0;collapsible=1;marginBottom=0;" parent="1" vertex="1">
                    <mxGeometry x="30" y="120" width="140" height="138" as="geometry"/>
                </mxCell>
                <mxCell id="3" value="specialty" style="text;strokeColor=none;fillColor=none;align=left;verticalAlign=top;spacingLeft=4;spacingRight=4;overflow=hidden;rotatable=0;points=[[0,0.5],[1,0.5]];portConstraint=eastwest;" parent="2" vertex="1">
                    <mxGeometry y="26" width="140" height="26" as="geometry"/>
                </mxCell>
                <mxCell id="4" value="institution" style="text;strokeColor=none;fillColor=none;align=left;verticalAlign=top;spacingLeft=4;spacingRight=4;overflow=hidden;rotatable=0;points=[[0,0.5],[1,0.5]];portConstraint=eastwest;" parent="2" vertex="1">
                    <mxGeometry y="52" width="140" height="26" as="geometry"/>
                </mxCell>
                <mxCell id="5" value="answer" style="text;strokeColor=none;fillColor=none;align=left;verticalAlign=top;spacingLeft=4;spacingRight=4;overflow=hidden;rotatable=0;points=[[0,0.5],[1,0.5]];portConstraint=eastwest;" parent="2" vertex="1">
                    <mxGeometry y="78" width="140" height="30" as="geometry"/>
                </mxCell>
                <mxCell id="ip2_ZGR8Ujh_SG-yfqoa-13" value="predict" style="text;strokeColor=none;fillColor=none;align=left;verticalAlign=top;spacingLeft=4;spacingRight=4;overflow=hidden;rotatable=0;points=[[0,0.5],[1,0.5]];portConstraint=eastwest;" vertex="1" parent="2">
                    <mxGeometry y="108" width="140" height="30" as="geometry"/>
                </mxCell>
                <mxCell id="6" value="specialty" style="swimlane;fontStyle=0;childLayout=stackLayout;horizontal=1;startSize=26;fillColor=none;horizontalStack=0;resizeParent=1;resizeParentMax=0;resizeLast=0;collapsible=1;marginBottom=0;" parent="1" vertex="1">
                    <mxGeometry x="30" y="340" width="140" height="78" as="geometry"/>
                </mxCell>
                <mxCell id="7" value="cod" style="text;strokeColor=none;fillColor=none;align=left;verticalAlign=top;spacingLeft=4;spacingRight=4;overflow=hidden;rotatable=0;points=[[0,0.5],[1,0.5]];portConstraint=eastwest;" parent="6" vertex="1">
                    <mxGeometry y="26" width="140" height="26" as="geometry"/>
                </mxCell>
                <mxCell id="8" value="specialty" style="text;strokeColor=none;fillColor=none;align=left;verticalAlign=top;spacingLeft=4;spacingRight=4;overflow=hidden;rotatable=0;points=[[0,0.5],[1,0.5]];portConstraint=eastwest;" parent="6" vertex="1">
                    <mxGeometry y="52" width="140" height="26" as="geometry"/>
                </mxCell>
                <mxCell id="10" value="institution" style="swimlane;fontStyle=0;childLayout=stackLayout;horizontal=1;startSize=26;fillColor=none;horizontalStack=0;resizeParent=1;resizeParentMax=0;resizeLast=0;collapsible=1;marginBottom=0;" parent="1" vertex="1">
                    <mxGeometry x="30" y="450" width="140" height="78" as="geometry"/>
                </mxCell>
                <mxCell id="11" value="cod" style="text;strokeColor=none;fillColor=none;align=left;verticalAlign=top;spacingLeft=4;spacingRight=4;overflow=hidden;rotatable=0;points=[[0,0.5],[1,0.5]];portConstraint=eastwest;" parent="10" vertex="1">
                    <mxGeometry y="26" width="140" height="26" as="geometry"/>
                </mxCell>
                <mxCell id="12" value="institution" style="text;strokeColor=none;fillColor=none;align=left;verticalAlign=top;spacingLeft=4;spacingRight=4;overflow=hidden;rotatable=0;points=[[0,0.5],[1,0.5]];portConstraint=eastwest;" parent="10" vertex="1">
                    <mxGeometry y="52" width="140" height="26" as="geometry"/>
                </mxCell>
                <mxCell id="ip2_ZGR8Ujh_SG-yfqoa-14" value="predict" style="swimlane;fontStyle=0;childLayout=stackLayout;horizontal=1;startSize=26;fillColor=none;horizontalStack=0;resizeParent=1;resizeParentMax=0;resizeLast=0;collapsible=1;marginBottom=0;" vertex="1" parent="1">
                    <mxGeometry x="300" y="190" width="140" height="78" as="geometry"/>
                </mxCell>
                <mxCell id="ip2_ZGR8Ujh_SG-yfqoa-15" value="Clasificador" style="text;strokeColor=none;fillColor=none;align=left;verticalAlign=top;spacingLeft=4;spacingRight=4;overflow=hidden;rotatable=0;points=[[0,0.5],[1,0.5]];portConstraint=eastwest;" vertex="1" parent="ip2_ZGR8Ujh_SG-yfqoa-14">
                    <mxGeometry y="26" width="140" height="26" as="geometry"/>
                </mxCell>
                <mxCell id="ip2_ZGR8Ujh_SG-yfqoa-17" value="respuesta" style="text;strokeColor=none;fillColor=none;align=left;verticalAlign=top;spacingLeft=4;spacingRight=4;overflow=hidden;rotatable=0;points=[[0,0.5],[1,0.5]];portConstraint=eastwest;" vertex="1" parent="ip2_ZGR8Ujh_SG-yfqoa-14">
                    <mxGeometry y="52" width="140" height="26" as="geometry"/>
                </mxCell>
                <mxCell id="ip2_ZGR8Ujh_SG-yfqoa-18" style="edgeStyle=orthogonalEdgeStyle;rounded=0;orthogonalLoop=1;jettySize=auto;html=1;entryX=0;entryY=0.25;entryDx=0;entryDy=0;" edge="1" parent="1" source="ip2_ZGR8Ujh_SG-yfqoa-13" target="ip2_ZGR8Ujh_SG-yfqoa-14">
                    <mxGeometry relative="1" as="geometry"/>
                </mxCell>
                <mxCell id="ip2_ZGR8Ujh_SG-yfqoa-19" value="Classificador" style="swimlane;fontStyle=0;childLayout=stackLayout;horizontal=1;startSize=26;fillColor=none;horizontalStack=0;resizeParent=1;resizeParentMax=0;resizeLast=0;collapsible=1;marginBottom=0;" vertex="1" parent="1">
                    <mxGeometry x="30" y="560" width="140" height="78" as="geometry"/>
                </mxCell>
                <mxCell id="ip2_ZGR8Ujh_SG-yfqoa-20" value="name" style="text;strokeColor=none;fillColor=none;align=left;verticalAlign=top;spacingLeft=4;spacingRight=4;overflow=hidden;rotatable=0;points=[[0,0.5],[1,0.5]];portConstraint=eastwest;" vertex="1" parent="ip2_ZGR8Ujh_SG-yfqoa-19">
                    <mxGeometry y="26" width="140" height="26" as="geometry"/>
                </mxCell>
                <mxCell id="ip2_ZGR8Ujh_SG-yfqoa-21" value="Data / Bolsa de Palabras" style="text;strokeColor=none;fillColor=none;align=left;verticalAlign=top;spacingLeft=4;spacingRight=4;overflow=hidden;rotatable=0;points=[[0,0.5],[1,0.5]];portConstraint=eastwest;" vertex="1" parent="ip2_ZGR8Ujh_SG-yfqoa-19">
                    <mxGeometry y="52" width="140" height="26" as="geometry"/>
                </mxCell>
                <mxCell id="ip2_ZGR8Ujh_SG-yfqoa-23" value="Data / Bolsa de Palabras" style="swimlane;fontStyle=0;childLayout=stackLayout;horizontal=1;startSize=26;fillColor=none;horizontalStack=0;resizeParent=1;resizeParentMax=0;resizeLast=0;collapsible=1;marginBottom=0;" vertex="1" parent="1">
                    <mxGeometry x="280" y="600" width="140" height="52" as="geometry"/>
                </mxCell>
                <mxCell id="ip2_ZGR8Ujh_SG-yfqoa-24" value="Array" style="text;strokeColor=none;fillColor=none;align=left;verticalAlign=top;spacingLeft=4;spacingRight=4;overflow=hidden;rotatable=0;points=[[0,0.5],[1,0.5]];portConstraint=eastwest;" vertex="1" parent="ip2_ZGR8Ujh_SG-yfqoa-23">
                    <mxGeometry y="26" width="140" height="26" as="geometry"/>
                </mxCell>
                <mxCell id="ip2_ZGR8Ujh_SG-yfqoa-27" style="edgeStyle=orthogonalEdgeStyle;rounded=0;orthogonalLoop=1;jettySize=auto;html=1;" edge="1" parent="1" source="ip2_ZGR8Ujh_SG-yfqoa-21" target="ip2_ZGR8Ujh_SG-yfqoa-23">
                    <mxGeometry relative="1" as="geometry"/>
                </mxCell>
            </root>
        </mxGraphModel>
    </diagram>
    <diagram id="qFKCYvAjVu3a5gXY63N1" name="Page-2">
        <mxGraphModel dx="560" dy="770" grid="1" gridSize="10" guides="1" tooltips="1" connect="1" arrows="1" fold="1" page="1" pageScale="1" pageWidth="850" pageHeight="1100" math="0" shadow="0">
            <root>
                <mxCell id="K9RAmgMCte8wPDmLBrsh-0"/>
                <mxCell id="K9RAmgMCte8wPDmLBrsh-1" parent="K9RAmgMCte8wPDmLBrsh-0"/>
                <mxCell id="K9RAmgMCte8wPDmLBrsh-2" value="FRONTEND" style="swimlane;startSize=23;" vertex="1" parent="K9RAmgMCte8wPDmLBrsh-1">
                    <mxGeometry x="50" y="290" width="200" height="200" as="geometry"/>
                </mxCell>
                <mxCell id="K9RAmgMCte8wPDmLBrsh-3" value="REACT " style="text;strokeColor=none;fillColor=none;align=left;verticalAlign=top;spacingLeft=4;spacingRight=4;overflow=hidden;rotatable=0;points=[[0,0.5],[1,0.5]];portConstraint=eastwest;" vertex="1" parent="K9RAmgMCte8wPDmLBrsh-2">
                    <mxGeometry x="35" y="50" width="130" height="26" as="geometry"/>
                </mxCell>
                <mxCell id="ek8Ph36FxFLr-LpKKU1V-0" value="Input " style="text;strokeColor=none;fillColor=none;align=left;verticalAlign=top;spacingLeft=4;spacingRight=4;overflow=hidden;rotatable=0;points=[[0,0.5],[1,0.5]];portConstraint=eastwest;" vertex="1" parent="K9RAmgMCte8wPDmLBrsh-2">
                    <mxGeometry x="35" y="87" width="115" height="26" as="geometry"/>
                </mxCell>
                <mxCell id="ek8Ph36FxFLr-LpKKU1V-1" value="tables" style="text;strokeColor=none;fillColor=none;align=left;verticalAlign=top;spacingLeft=4;spacingRight=4;overflow=hidden;rotatable=0;points=[[0,0.5],[1,0.5]];portConstraint=eastwest;" vertex="1" parent="K9RAmgMCte8wPDmLBrsh-2">
                    <mxGeometry x="35" y="120" width="60" height="26" as="geometry"/>
                </mxCell>
                <mxCell id="K9RAmgMCte8wPDmLBrsh-4" value="BACKEND" style="swimlane;" vertex="1" parent="K9RAmgMCte8wPDmLBrsh-1">
                    <mxGeometry x="380" y="290" width="460" height="290" as="geometry"/>
                </mxCell>
                <mxCell id="K9RAmgMCte8wPDmLBrsh-8" value="FastApi" style="text;strokeColor=none;fillColor=none;align=left;verticalAlign=top;spacingLeft=4;spacingRight=4;overflow=hidden;rotatable=0;points=[[0,0.5],[1,0.5]];portConstraint=eastwest;" vertex="1" parent="K9RAmgMCte8wPDmLBrsh-4">
                    <mxGeometry x="55" y="50" width="60" height="26" as="geometry"/>
                </mxCell>
                <mxCell id="K9RAmgMCte8wPDmLBrsh-9" value="MongoDB" style="text;strokeColor=none;fillColor=none;align=left;verticalAlign=top;spacingLeft=4;spacingRight=4;overflow=hidden;rotatable=0;points=[[0,0.5],[1,0.5]];portConstraint=eastwest;" vertex="1" parent="K9RAmgMCte8wPDmLBrsh-4">
                    <mxGeometry x="55" y="100" width="60" height="26" as="geometry"/>
                </mxCell>
                <mxCell id="K9RAmgMCte8wPDmLBrsh-10" value="Classificador" style="text;strokeColor=none;fillColor=none;align=left;verticalAlign=top;spacingLeft=4;spacingRight=4;overflow=hidden;rotatable=0;points=[[0,0.5],[1,0.5]];portConstraint=eastwest;" vertex="1" parent="K9RAmgMCte8wPDmLBrsh-4">
                    <mxGeometry x="42.5" y="160" width="85" height="26" as="geometry"/>
                </mxCell>
                <mxCell id="K9RAmgMCte8wPDmLBrsh-11" value="A. MODELO BIO MEDICO" style="text;whiteSpace=wrap;html=1;" vertex="1" parent="K9RAmgMCte8wPDmLBrsh-4">
                    <mxGeometry x="180" y="110" width="170" height="30" as="geometry"/>
                </mxCell>
                <mxCell id="K9RAmgMCte8wPDmLBrsh-12" value="B. ENFOQUE PSICOSOCIAL - COMUNITARIO" style="text;whiteSpace=wrap;html=1;" vertex="1" parent="K9RAmgMCte8wPDmLBrsh-4">
                    <mxGeometry x="180" y="150" width="280" height="30" as="geometry"/>
                </mxCell>
                <mxCell id="K9RAmgMCte8wPDmLBrsh-13" value="C. ENFOQUE COTIDIANO" style="text;whiteSpace=wrap;html=1;" vertex="1" parent="K9RAmgMCte8wPDmLBrsh-4">
                    <mxGeometry x="180" y="190" width="170" height="30" as="geometry"/>
                </mxCell>
                <mxCell id="K9RAmgMCte8wPDmLBrsh-19" value="" style="shape=curlyBracket;whiteSpace=wrap;html=1;rounded=1;" vertex="1" parent="K9RAmgMCte8wPDmLBrsh-4">
                    <mxGeometry x="23" y="66" width="20" height="120" as="geometry"/>
                </mxCell>
                <mxCell id="K9RAmgMCte8wPDmLBrsh-20" value="" style="shape=curlyBracket;whiteSpace=wrap;html=1;rounded=1;" vertex="1" parent="K9RAmgMCte8wPDmLBrsh-4">
                    <mxGeometry x="140" y="113" width="20" height="120" as="geometry"/>
                </mxCell>
                <mxCell id="K9RAmgMCte8wPDmLBrsh-5" value="" style="shape=doubleArrow;whiteSpace=wrap;html=1;" vertex="1" parent="K9RAmgMCte8wPDmLBrsh-1">
                    <mxGeometry x="250" y="370" width="130" height="60" as="geometry"/>
                </mxCell>
                <mxCell id="K9RAmgMCte8wPDmLBrsh-7" value="GET&#10;POST&#10;DELETE&#10;PUT" style="text;strokeColor=none;fillColor=none;align=left;verticalAlign=top;spacingLeft=4;spacingRight=4;overflow=hidden;rotatable=0;points=[[0,0.5],[1,0.5]];portConstraint=eastwest;" vertex="1" parent="K9RAmgMCte8wPDmLBrsh-1">
                    <mxGeometry x="305" y="430" width="60" height="70" as="geometry"/>
                </mxCell>
            </root>
        </mxGraphModel>
    </diagram>
    <diagram id="3lB3BUYlFAezZz7i5Gwu" name="Page-3">
        <mxGraphModel dx="560" dy="770" grid="1" gridSize="10" guides="1" tooltips="1" connect="1" arrows="1" fold="1" page="1" pageScale="1" pageWidth="850" pageHeight="1100" math="0" shadow="0">
            <root>
                <mxCell id="NqhoaPlFWVwp1z8bE1nF-0"/>
                <mxCell id="NqhoaPlFWVwp1z8bE1nF-1" parent="NqhoaPlFWVwp1z8bE1nF-0"/>
                <mxCell id="NqhoaPlFWVwp1z8bE1nF-4" value="" style="edgeStyle=orthogonalEdgeStyle;rounded=0;orthogonalLoop=1;jettySize=auto;html=1;" edge="1" parent="NqhoaPlFWVwp1z8bE1nF-1" source="NqhoaPlFWVwp1z8bE1nF-2" target="NqhoaPlFWVwp1z8bE1nF-3">
                    <mxGeometry relative="1" as="geometry"/>
                </mxCell>
                <mxCell id="NqhoaPlFWVwp1z8bE1nF-2" value="" style="shape=actor;whiteSpace=wrap;html=1;" vertex="1" parent="NqhoaPlFWVwp1z8bE1nF-1">
                    <mxGeometry x="100" y="120" width="40" height="60" as="geometry"/>
                </mxCell>
                <mxCell id="NqhoaPlFWVwp1z8bE1nF-6" value="" style="edgeStyle=orthogonalEdgeStyle;rounded=0;orthogonalLoop=1;jettySize=auto;html=1;" edge="1" parent="NqhoaPlFWVwp1z8bE1nF-1" source="NqhoaPlFWVwp1z8bE1nF-3" target="NqhoaPlFWVwp1z8bE1nF-5">
                    <mxGeometry relative="1" as="geometry"/>
                </mxCell>
                <mxCell id="NqhoaPlFWVwp1z8bE1nF-3" value="Parrafo" style="whiteSpace=wrap;html=1;" vertex="1" parent="NqhoaPlFWVwp1z8bE1nF-1">
                    <mxGeometry x="180" y="120" width="120" height="60" as="geometry"/>
                </mxCell>
                <mxCell id="NqhoaPlFWVwp1z8bE1nF-11" value="" style="edgeStyle=orthogonalEdgeStyle;rounded=0;orthogonalLoop=1;jettySize=auto;html=1;" edge="1" parent="NqhoaPlFWVwp1z8bE1nF-1" source="NqhoaPlFWVwp1z8bE1nF-5" target="NqhoaPlFWVwp1z8bE1nF-7">
                    <mxGeometry relative="1" as="geometry"/>
                </mxCell>
                <mxCell id="NqhoaPlFWVwp1z8bE1nF-5" value="API POST&amp;nbsp;" style="whiteSpace=wrap;html=1;" vertex="1" parent="NqhoaPlFWVwp1z8bE1nF-1">
                    <mxGeometry x="180" y="240" width="120" height="60" as="geometry"/>
                </mxCell>
                <mxCell id="NqhoaPlFWVwp1z8bE1nF-10" value="" style="edgeStyle=orthogonalEdgeStyle;rounded=0;orthogonalLoop=1;jettySize=auto;html=1;" edge="1" parent="NqhoaPlFWVwp1z8bE1nF-1" source="NqhoaPlFWVwp1z8bE1nF-7" target="NqhoaPlFWVwp1z8bE1nF-9">
                    <mxGeometry relative="1" as="geometry"/>
                </mxCell>
                <mxCell id="NqhoaPlFWVwp1z8bE1nF-7" value="NLP" style="whiteSpace=wrap;html=1;" vertex="1" parent="NqhoaPlFWVwp1z8bE1nF-1">
                    <mxGeometry x="380" y="240" width="120" height="60" as="geometry"/>
                </mxCell>
                <mxCell id="NqhoaPlFWVwp1z8bE1nF-13" value="" style="edgeStyle=orthogonalEdgeStyle;rounded=0;orthogonalLoop=1;jettySize=auto;html=1;" edge="1" parent="NqhoaPlFWVwp1z8bE1nF-1" source="NqhoaPlFWVwp1z8bE1nF-9" target="NqhoaPlFWVwp1z8bE1nF-12">
                    <mxGeometry relative="1" as="geometry"/>
                </mxCell>
                <mxCell id="NqhoaPlFWVwp1z8bE1nF-9" value="Clasificador" style="whiteSpace=wrap;html=1;" vertex="1" parent="NqhoaPlFWVwp1z8bE1nF-1">
                    <mxGeometry x="580" y="240" width="120" height="60" as="geometry"/>
                </mxCell>
                <mxCell id="NqhoaPlFWVwp1z8bE1nF-15" value="" style="edgeStyle=orthogonalEdgeStyle;rounded=0;orthogonalLoop=1;jettySize=auto;html=1;" edge="1" parent="NqhoaPlFWVwp1z8bE1nF-1" source="NqhoaPlFWVwp1z8bE1nF-12" target="NqhoaPlFWVwp1z8bE1nF-14">
                    <mxGeometry relative="1" as="geometry"/>
                </mxCell>
                <mxCell id="NqhoaPlFWVwp1z8bE1nF-12" value="A , B , C" style="whiteSpace=wrap;html=1;" vertex="1" parent="NqhoaPlFWVwp1z8bE1nF-1">
                    <mxGeometry x="580" y="380" width="120" height="60" as="geometry"/>
                </mxCell>
                <mxCell id="NqhoaPlFWVwp1z8bE1nF-17" value="" style="edgeStyle=orthogonalEdgeStyle;rounded=0;orthogonalLoop=1;jettySize=auto;html=1;" edge="1" parent="NqhoaPlFWVwp1z8bE1nF-1" source="NqhoaPlFWVwp1z8bE1nF-14" target="NqhoaPlFWVwp1z8bE1nF-16">
                    <mxGeometry relative="1" as="geometry"/>
                </mxCell>
                <mxCell id="NqhoaPlFWVwp1z8bE1nF-14" value="" style="shape=datastore;whiteSpace=wrap;html=1;" vertex="1" parent="NqhoaPlFWVwp1z8bE1nF-1">
                    <mxGeometry x="610" y="490" width="60" height="60" as="geometry"/>
                </mxCell>
                <mxCell id="NqhoaPlFWVwp1z8bE1nF-19" value="" style="edgeStyle=orthogonalEdgeStyle;rounded=0;orthogonalLoop=1;jettySize=auto;html=1;" edge="1" parent="NqhoaPlFWVwp1z8bE1nF-1" source="NqhoaPlFWVwp1z8bE1nF-16" target="NqhoaPlFWVwp1z8bE1nF-18">
                    <mxGeometry relative="1" as="geometry"/>
                </mxCell>
                <mxCell id="NqhoaPlFWVwp1z8bE1nF-16" value="Create Documento" style="whiteSpace=wrap;html=1;" vertex="1" parent="NqhoaPlFWVwp1z8bE1nF-1">
                    <mxGeometry x="425" y="490" width="120" height="60" as="geometry"/>
                </mxCell>
                <mxCell id="NqhoaPlFWVwp1z8bE1nF-21" value="" style="edgeStyle=orthogonalEdgeStyle;rounded=0;orthogonalLoop=1;jettySize=auto;html=1;" edge="1" parent="NqhoaPlFWVwp1z8bE1nF-1" source="NqhoaPlFWVwp1z8bE1nF-18" target="NqhoaPlFWVwp1z8bE1nF-20">
                    <mxGeometry relative="1" as="geometry"/>
                </mxCell>
                <mxCell id="NqhoaPlFWVwp1z8bE1nF-18" value="Nombre Clasificador&lt;br&gt;Porcetanje" style="whiteSpace=wrap;html=1;" vertex="1" parent="NqhoaPlFWVwp1z8bE1nF-1">
                    <mxGeometry x="225" y="490" width="120" height="60" as="geometry"/>
                </mxCell>
                <mxCell id="NqhoaPlFWVwp1z8bE1nF-20" value="" style="shape=waypoint;size=6;pointerEvents=1;points=[];fillColor=#2a2a2a;resizable=0;rotatable=0;perimeter=centerPerimeter;snapToPoint=1;" vertex="1" parent="NqhoaPlFWVwp1z8bE1nF-1">
                    <mxGeometry x="65" y="500" width="40" height="40" as="geometry"/>
                </mxCell>
            </root>
        </mxGraphModel>
    </diagram>
</mxfile>